<?xml version="1.0" encoding="utf-8"?>
<!-- Generator: Adobe Illustrator 24.2.2, SVG Export Plug-In . SVG Version: 6.00 Build 0)  -->
<svg version="1.1" xmlns="http://www.w3.org/2000/svg" xmlns:xlink="http://www.w3.org/1999/xlink" x="0px" y="0px"
	 viewBox="0 0 139 20" style="enable-background:new 0 0 139 20;" xml:space="preserve">
<style type="text/css">
	.st0{fill:none;}
	.st1{fill-rule:evenodd;clip-rule:evenodd;fill:url(#SVGID_1_);}
	.st2{opacity:0.5;fill-rule:evenodd;clip-rule:evenodd;fill:url(#SVGID_2_);enable-background:new    ;}
	.st3{opacity:0.15;fill-rule:evenodd;clip-rule:evenodd;fill:url(#SVGID_3_);enable-background:new    ;}
	.st4{fill:#FFFFFF;}
</style>
<g id="Layer_2">
</g>
<g id="Layer_1">
	<g>
		<path class="st0" d="M0,1.8"/>
		<g>
			
				<linearGradient id="SVGID_1_" gradientUnits="userSpaceOnUse" x1="-213.9319" y1="409.9271" x2="-214.2822" y2="409.2866" gradientTransform="matrix(16.789 0 0 -19.704 3599.8918 8079.2534)">
				<stop  offset="0" style="stop-color:#33D35E"/>
				<stop  offset="1" style="stop-color:#2AB6D9"/>
			</linearGradient>
			<path class="st1" d="M6.9,1.8L0,14.4h3.8l6.9-12.6H6.9z"/>
			
				<linearGradient id="SVGID_2_" gradientUnits="userSpaceOnUse" x1="-214.0897" y1="409.9271" x2="-214.44" y2="409.2866" gradientTransform="matrix(16.789 0 0 -19.704 3607.26 8079.2534)">
				<stop  offset="0" style="stop-color:#33D35E"/>
				<stop  offset="1" style="stop-color:#2AB6D9"/>
			</linearGradient>
			<path class="st2" d="M11.6,1.8L4.7,14.4h3.8l6.9-12.6H11.6z"/>
			
				<linearGradient id="SVGID_3_" gradientUnits="userSpaceOnUse" x1="-214.2467" y1="409.9271" x2="-214.597" y2="409.2866" gradientTransform="matrix(16.788 0 0 -19.704 3614.4006 8079.2534)">
				<stop  offset="0" style="stop-color:#33D35E"/>
				<stop  offset="1" style="stop-color:#2AB6D9"/>
			</linearGradient>
			<path class="st3" d="M16.4,1.8L9.4,14.4h3.8l6.9-12.6H16.4z"/>
		</g>
	</g>
	<g>
		<g>
			<path class="st4" d="M24.3,12.1c-0.6,0-1.1-0.1-1.5-0.4c-0.4-0.2-0.7-0.6-0.9-1.1s-0.2-1-0.1-1.6C21.8,8.5,22,8,22.3,7.5
				C22.6,7,23,6.6,23.5,6.4c0.5-0.3,1-0.4,1.6-0.4c0.6,0,1.1,0.1,1.5,0.4c0.4,0.3,0.6,0.6,0.8,1.1c0.1,0.5,0.2,1,0.1,1.6l-0.1,0.5
				h-3.8c0,0.3,0,0.5,0,0.7c0.1,0.2,0.2,0.3,0.3,0.4c0.1,0.1,0.3,0.1,0.5,0.1c0.2,0,0.5-0.1,0.7-0.2c0.2-0.1,0.4-0.3,0.5-0.5h1.7
				c-0.1,0.4-0.4,0.8-0.7,1.1c-0.3,0.3-0.7,0.5-1.1,0.7C25.1,12,24.7,12.1,24.3,12.1z M23.7,8.3h2c0-0.2,0-0.4,0-0.5
				c0-0.2-0.1-0.3-0.3-0.4c-0.1-0.1-0.3-0.1-0.5-0.1c-0.2,0-0.4,0.1-0.5,0.2c-0.2,0.1-0.3,0.2-0.4,0.4C23.8,8,23.8,8.2,23.7,8.3z"/>
			<path class="st4" d="M29.8,12.1c-0.4,0-0.7-0.1-1-0.2c-0.3-0.1-0.5-0.4-0.6-0.6c-0.1-0.3-0.2-0.6-0.1-1c0.1-0.6,0.4-1.1,1-1.5
				c0.5-0.3,1.3-0.5,2.4-0.5l0.6,0l0-0.3c0-0.2,0-0.4-0.1-0.5s-0.3-0.2-0.6-0.2c-0.2,0-0.4,0-0.6,0.1c-0.2,0.1-0.4,0.3-0.5,0.5h-1.6
				c0.1-0.4,0.3-0.8,0.6-1.1c0.3-0.3,0.6-0.5,1.1-0.6c0.4-0.1,0.9-0.2,1.4-0.2c0.6,0,1.1,0.1,1.5,0.2s0.6,0.4,0.7,0.7
				c0.1,0.3,0.2,0.6,0.1,1L33.3,12h-1.6l0-1c-0.3,0.4-0.5,0.7-0.8,0.9S30.2,12.1,29.8,12.1z M30.6,10.9c0.1,0,0.3,0,0.4-0.1
				c0.1,0,0.2-0.1,0.3-0.2c0.1-0.1,0.2-0.2,0.3-0.3c0.1-0.1,0.1-0.2,0.1-0.3l0.1-0.8l-0.5,0c-0.2,0-0.4,0-0.6,0.1
				c-0.2,0.1-0.4,0.1-0.6,0.3c-0.2,0.1-0.3,0.3-0.3,0.5c0,0.3,0,0.4,0.2,0.6S30.4,10.9,30.6,10.9z"/>
			<path class="st4" d="M37.1,12.1c-0.4,0-0.8-0.1-1.2-0.2c-0.4-0.1-0.7-0.4-0.9-0.7s-0.4-0.7-0.4-1.2h1.7c0,0.2,0.1,0.4,0.2,0.5
				s0.2,0.2,0.4,0.2c0.1,0,0.3,0.1,0.4,0.1c0.3,0,0.5,0,0.7-0.1c0.2-0.1,0.3-0.2,0.3-0.4c0-0.1,0-0.2-0.1-0.3
				c-0.1-0.1-0.3-0.1-0.5-0.2l-0.9-0.2c-0.5-0.1-0.9-0.3-1.2-0.6c-0.3-0.3-0.4-0.7-0.3-1.2c0-0.4,0.2-0.7,0.4-1s0.6-0.5,1-0.7
				s0.9-0.3,1.4-0.3c0.8,0,1.4,0.2,1.8,0.5c0.4,0.3,0.6,0.8,0.5,1.4h-1.6c0-0.2-0.1-0.4-0.3-0.5S38,7.2,37.8,7.2
				c-0.2,0-0.5,0-0.6,0.1c-0.2,0.1-0.3,0.2-0.3,0.4c0,0.1,0,0.2,0.2,0.3c0.1,0.1,0.4,0.1,0.7,0.2l0.8,0.2c0.3,0.1,0.6,0.2,0.8,0.4
				c0.2,0.1,0.3,0.3,0.4,0.5c0.1,0.2,0.2,0.3,0.2,0.5c0,0.2,0,0.3,0,0.5c-0.1,0.4-0.2,0.8-0.5,1s-0.6,0.5-1,0.6
				C38.1,12,37.6,12.1,37.1,12.1z"/>
			<path class="st4" d="M41.5,13.9c-0.4,0-0.8-0.1-1.2-0.2l0.2-1.2l0.6,0c0.4,0,0.6,0,0.8-0.1c0.2-0.1,0.3-0.2,0.4-0.3
				c0.1-0.1,0.1-0.2,0.1-0.2l0.1-0.2L41,6H43l0.7,3.6L45.5,6h1.9l-3.2,5.8c-0.3,0.6-0.6,1-0.9,1.3s-0.6,0.5-0.9,0.6
				C42.1,13.9,41.8,13.9,41.5,13.9z"/>
			<path class="st4" d="M50.7,12.1c-0.3,0-0.5,0-0.7-0.1c-0.2-0.1-0.4-0.2-0.5-0.3c-0.1-0.1-0.2-0.3-0.3-0.4s-0.1-0.3-0.2-0.5
				L48.7,12h-1.4l1.2-8.6h2L50,6.8c0.1-0.1,0.2-0.3,0.4-0.4c0.1-0.1,0.3-0.2,0.4-0.3C50.9,6.1,51.1,6,51.3,6s0.3-0.1,0.5-0.1
				c0.7,0,1.3,0.3,1.6,0.8C53.7,7.3,53.8,8,53.7,9c-0.1,0.9-0.5,1.7-1,2.3C52.2,11.8,51.6,12.1,50.7,12.1z M50.5,10.7
				c0.3,0,0.6-0.1,0.8-0.4s0.4-0.7,0.5-1.4c0.1-0.6,0-1-0.1-1.3c-0.2-0.3-0.4-0.4-0.7-0.4c-0.3,0-0.6,0.1-0.8,0.4
				C49.9,8,49.8,8.4,49.7,9c-0.1,0.6-0.1,1.1,0.1,1.4C49.9,10.6,50.2,10.7,50.5,10.7z"/>
			<path class="st4" d="M56,12.1c-0.4,0-0.7-0.1-1-0.2c-0.3-0.1-0.5-0.4-0.6-0.6c-0.1-0.3-0.2-0.6-0.1-1c0.1-0.6,0.4-1.1,1-1.5
				c0.5-0.3,1.3-0.5,2.4-0.5l0.6,0l0-0.3c0-0.2,0-0.4-0.1-0.5s-0.3-0.2-0.6-0.2c-0.2,0-0.4,0-0.6,0.1c-0.2,0.1-0.4,0.3-0.5,0.5h-1.6
				c0.1-0.4,0.3-0.8,0.6-1.1c0.3-0.3,0.6-0.5,1.1-0.6c0.4-0.1,0.9-0.2,1.4-0.2c0.6,0,1.1,0.1,1.5,0.2s0.6,0.4,0.7,0.7
				c0.1,0.3,0.2,0.6,0.1,1L59.5,12h-1.6l0-1c-0.3,0.4-0.5,0.7-0.8,0.9S56.4,12.1,56,12.1z M56.8,10.9c0.1,0,0.3,0,0.4-0.1
				c0.1,0,0.2-0.1,0.3-0.2c0.1-0.1,0.2-0.2,0.3-0.3c0.1-0.1,0.1-0.2,0.1-0.3l0.1-0.8l-0.5,0c-0.2,0-0.4,0-0.6,0.1
				c-0.2,0.1-0.4,0.1-0.6,0.3c-0.2,0.1-0.3,0.3-0.3,0.5c0,0.3,0,0.4,0.2,0.6S56.6,10.9,56.8,10.9z"/>
			<path class="st4" d="M60.9,12l0.9-6h1.9l-0.1,0.7c0.1-0.1,0.3-0.3,0.4-0.4c0.2-0.1,0.3-0.2,0.5-0.3C64.8,6,65.1,6,65.4,6
				c0.3,0,0.7,0.1,1,0.3C66.6,6.4,66.8,6.7,67,7s0.2,0.6,0.1,1l-0.6,4h-1.9l0.6-3.7c0-0.2,0-0.4-0.2-0.5c-0.1-0.1-0.3-0.2-0.5-0.2
				c-0.1,0-0.3,0-0.4,0.1c-0.1,0.1-0.3,0.1-0.4,0.2c-0.1,0.1-0.2,0.2-0.2,0.4L62.8,12H60.9z"/>
			<path class="st4" d="M67.8,12l1.3-8.6h2l-0.7,4.8L72.5,6h2.1L72,8.5l1.6,3.5h-1.9l-1.1-2.4L70,10.3L69.7,12H67.8z"/>
		</g>
	</g>
</g>
</svg>
