<?xml version="1.0" encoding="utf-8"?>
<!-- Generator: Adobe Illustrator 24.2.2, SVG Export Plug-In . SVG Version: 6.00 Build 0)  -->
<svg version="1.1" xmlns="http://www.w3.org/2000/svg" xmlns:xlink="http://www.w3.org/1999/xlink" x="0px" y="0px"
	 viewBox="0 0 139 20" style="enable-background:new 0 0 139 20;" xml:space="preserve">
<style type="text/css">
	.st0{fill:none;}
	.st1{fill-rule:evenodd;clip-rule:evenodd;fill:url(#SVGID_1_);}
	.st2{opacity:0.5;fill-rule:evenodd;clip-rule:evenodd;fill:url(#SVGID_2_);enable-background:new    ;}
	.st3{opacity:0.15;fill-rule:evenodd;clip-rule:evenodd;fill:url(#SVGID_3_);enable-background:new    ;}
	.st4{fill:#181E35;}
</style>
<g id="Layer_2">
</g>
<g id="Layer_1">
	<g>
		<path class="st0" d="M0,1.8"/>
		<g>
			
				<linearGradient id="SVGID_1_" gradientUnits="userSpaceOnUse" x1="-214.1018" y1="409.9319" x2="-214.3301" y2="409.5146" gradientTransform="matrix(16.789 0 0 -19.704 3599.8918 8079.2534)">
				<stop  offset="0" style="stop-color:#33D35E"/>
				<stop  offset="1" style="stop-color:#2AB6D9"/>
			</linearGradient>
			<path class="st1" d="M4.5,1.8L0,10h2.5L7,1.8H4.5z"/>
			
				<linearGradient id="SVGID_2_" gradientUnits="userSpaceOnUse" x1="-214.3575" y1="409.9319" x2="-214.5858" y2="409.5146" gradientTransform="matrix(16.789 0 0 -19.704 3607.26 8079.2534)">
				<stop  offset="0" style="stop-color:#33D35E"/>
				<stop  offset="1" style="stop-color:#2AB6D9"/>
			</linearGradient>
			<path class="st2" d="M7.6,1.8L3.1,10h2.5l4.5-8.2H7.6z"/>
			
				<linearGradient id="SVGID_3_" gradientUnits="userSpaceOnUse" x1="-214.6125" y1="409.9319" x2="-214.8408" y2="409.5146" gradientTransform="matrix(16.788 0 0 -19.704 3614.4006 8079.2534)">
				<stop  offset="0" style="stop-color:#33D35E"/>
				<stop  offset="1" style="stop-color:#2AB6D9"/>
			</linearGradient>
			<path class="st3" d="M10.7,1.8L6.2,10h2.5l4.5-8.2H10.7z"/>
		</g>
	</g>
	<g>
		<g>
			<path class="st4" d="M15.8,8.5c-0.4,0-0.7-0.1-1-0.2s-0.5-0.4-0.6-0.7s-0.2-0.6-0.1-1c0.1-0.4,0.2-0.7,0.4-1
				c0.2-0.3,0.5-0.6,0.8-0.7c0.3-0.2,0.7-0.3,1.1-0.3c0.4,0,0.7,0.1,1,0.3c0.2,0.2,0.4,0.4,0.5,0.7c0.1,0.3,0.1,0.6,0.1,1l-0.1,0.3
				h-2.5c0,0.2,0,0.3,0,0.4c0,0.1,0.1,0.2,0.2,0.3s0.2,0.1,0.3,0.1c0.2,0,0.3,0,0.4-0.1c0.1-0.1,0.2-0.2,0.3-0.3h1.1
				c-0.1,0.3-0.2,0.5-0.4,0.7c-0.2,0.2-0.5,0.4-0.7,0.5C16.4,8.5,16.1,8.5,15.8,8.5z M15.5,6.1h1.3c0-0.1,0-0.2,0-0.4
				c0-0.1-0.1-0.2-0.2-0.3c-0.1-0.1-0.2-0.1-0.4-0.1c-0.1,0-0.2,0-0.4,0.1c-0.1,0.1-0.2,0.2-0.3,0.3C15.5,5.8,15.5,5.9,15.5,6.1z"/>
			<path class="st4" d="M19.4,8.5c-0.2,0-0.5,0-0.6-0.1c-0.2-0.1-0.3-0.2-0.4-0.4s-0.1-0.4-0.1-0.7c0.1-0.4,0.3-0.7,0.6-1
				C19.3,6.1,19.8,6,20.5,6l0.4,0l0-0.2c0-0.2,0-0.3-0.1-0.3c-0.1-0.1-0.2-0.1-0.4-0.1c-0.1,0-0.3,0-0.4,0.1
				c-0.1,0.1-0.3,0.2-0.3,0.3h-1C18.7,5.5,18.8,5.2,19,5c0.2-0.2,0.4-0.3,0.7-0.4c0.3-0.1,0.6-0.1,0.9-0.1c0.4,0,0.7,0.1,1,0.2
				C21.8,4.7,22,4.9,22,5.1c0.1,0.2,0.1,0.4,0.1,0.6l-0.4,2.7h-1.1l0-0.6c-0.2,0.3-0.3,0.5-0.5,0.6C19.9,8.5,19.7,8.5,19.4,8.5z
				 M20,7.7c0.1,0,0.2,0,0.2,0c0.1,0,0.2-0.1,0.2-0.1c0.1-0.1,0.1-0.1,0.2-0.2c0-0.1,0.1-0.1,0.1-0.2l0.1-0.5l-0.3,0
				c-0.1,0-0.3,0-0.4,0.1c-0.1,0-0.3,0.1-0.4,0.2c-0.1,0.1-0.2,0.2-0.2,0.3c0,0.2,0,0.3,0.1,0.4C19.7,7.6,19.8,7.7,20,7.7z"/>
			<path class="st4" d="M24.2,8.5c-0.3,0-0.5,0-0.8-0.1S23,8.1,22.8,7.9c-0.2-0.2-0.2-0.5-0.2-0.8h1.1c0,0.1,0.1,0.2,0.1,0.3
				c0.1,0.1,0.2,0.1,0.3,0.1s0.2,0,0.2,0c0.2,0,0.3,0,0.5-0.1c0.1-0.1,0.2-0.1,0.2-0.2c0-0.1,0-0.2-0.1-0.2C24.8,7.1,24.7,7,24.5,7
				l-0.6-0.1c-0.3-0.1-0.6-0.2-0.8-0.4c-0.2-0.2-0.3-0.4-0.2-0.8c0-0.2,0.1-0.5,0.3-0.6c0.2-0.2,0.4-0.3,0.6-0.5
				c0.3-0.1,0.6-0.2,0.9-0.2c0.5,0,0.9,0.1,1.1,0.3c0.3,0.2,0.4,0.5,0.3,0.9h-1.1c0-0.1-0.1-0.2-0.2-0.3c-0.1-0.1-0.2-0.1-0.4-0.1
				c-0.2,0-0.3,0-0.4,0.1C24.1,5.5,24,5.5,24,5.6c0,0.1,0,0.1,0.1,0.2s0.2,0.1,0.4,0.1l0.5,0.1c0.2,0.1,0.4,0.1,0.5,0.2
				c0.1,0.1,0.2,0.2,0.3,0.3C26,6.7,26,6.9,26,7s0,0.2,0,0.3c0,0.3-0.1,0.5-0.3,0.7c-0.2,0.2-0.4,0.3-0.7,0.4
				C24.8,8.5,24.5,8.5,24.2,8.5z"/>
			<path class="st4" d="M27,9.7c-0.3,0-0.5,0-0.8-0.1l0.1-0.8l0.4,0c0.2,0,0.4,0,0.5,0c0.1,0,0.2-0.1,0.2-0.2s0.1-0.1,0.1-0.1
				l0.1-0.1l-0.9-3.7H28l0.5,2.3l1.2-2.3h1.2l-2.1,3.8c-0.2,0.4-0.4,0.6-0.6,0.8c-0.2,0.2-0.4,0.3-0.6,0.4S27.2,9.7,27,9.7z"/>
			<path class="st4" d="M33.1,8.5c-0.2,0-0.3,0-0.4-0.1c-0.1,0-0.2-0.1-0.3-0.2c-0.1-0.1-0.2-0.2-0.2-0.3S32,7.8,32,7.6l-0.3,0.8
				h-0.9l0.8-5.6h1.3L32.6,5c0.1-0.1,0.1-0.2,0.2-0.2c0.1-0.1,0.2-0.1,0.3-0.2c0.1,0,0.2-0.1,0.3-0.1c0.1,0,0.2,0,0.3,0
				c0.5,0,0.8,0.2,1,0.5C35,5.4,35.1,5.8,35,6.5c-0.1,0.6-0.3,1.1-0.6,1.5C34,8.3,33.6,8.5,33.1,8.5z M32.9,7.6
				c0.2,0,0.4-0.1,0.5-0.3c0.2-0.2,0.3-0.5,0.3-0.9c0.1-0.4,0-0.7-0.1-0.8c-0.1-0.2-0.3-0.2-0.5-0.2c-0.2,0-0.4,0.1-0.5,0.3
				c-0.1,0.2-0.2,0.4-0.3,0.8c-0.1,0.4,0,0.7,0.1,0.9C32.5,7.5,32.7,7.6,32.9,7.6z"/>
			<path class="st4" d="M36.5,8.5c-0.2,0-0.5,0-0.6-0.1c-0.2-0.1-0.3-0.2-0.4-0.4s-0.1-0.4-0.1-0.7c0.1-0.4,0.3-0.7,0.6-1
				C36.3,6.1,36.9,6,37.5,6l0.4,0l0-0.2c0-0.2,0-0.3-0.1-0.3c-0.1-0.1-0.2-0.1-0.4-0.1c-0.1,0-0.3,0-0.4,0.1
				c-0.1,0.1-0.3,0.2-0.3,0.3h-1c0.1-0.3,0.2-0.5,0.4-0.7c0.2-0.2,0.4-0.3,0.7-0.4c0.3-0.1,0.6-0.1,0.9-0.1c0.4,0,0.7,0.1,1,0.2
				c0.2,0.1,0.4,0.2,0.5,0.4c0.1,0.2,0.1,0.4,0.1,0.6l-0.4,2.7h-1.1l0-0.6c-0.2,0.3-0.3,0.5-0.5,0.6C37,8.5,36.7,8.5,36.5,8.5z
				 M37,7.7c0.1,0,0.2,0,0.2,0c0.1,0,0.2-0.1,0.2-0.1c0.1-0.1,0.1-0.1,0.2-0.2c0-0.1,0.1-0.1,0.1-0.2l0.1-0.5l-0.3,0
				c-0.1,0-0.3,0-0.4,0.1c-0.1,0-0.3,0.1-0.4,0.2c-0.1,0.1-0.2,0.2-0.2,0.3c0,0.2,0,0.3,0.1,0.4C36.8,7.6,36.9,7.7,37,7.7z"/>
			<path class="st4" d="M39.7,8.4l0.6-3.9h1.2L41.4,5c0.1-0.1,0.2-0.2,0.3-0.2c0.1-0.1,0.2-0.1,0.4-0.2c0.1,0,0.3-0.1,0.5-0.1
				c0.2,0,0.4,0.1,0.6,0.2s0.3,0.3,0.4,0.5c0.1,0.2,0.1,0.4,0.1,0.7l-0.4,2.6h-1.3L42.4,6c0-0.2,0-0.3-0.1-0.4
				c-0.1-0.1-0.2-0.1-0.3-0.1c-0.1,0-0.2,0-0.3,0.1s-0.2,0.1-0.2,0.2c-0.1,0.1-0.1,0.1-0.1,0.2L41,8.4H39.7z"/>
			<path class="st4" d="M44.2,8.4L45,2.9h1.3L45.8,6l1.4-1.5h1.3l-1.6,1.6L48,8.4h-1.2l-0.7-1.6l-0.5,0.4l-0.2,1.1H44.2z"/>
		</g>
	</g>
</g>
</svg>
